<svg xmlns="http://www.w3.org/2000/svg" width="20" height="19" viewBox="0 0 20 19">
    <g fill="none" fill-rule="evenodd">
        <g fill="#2B2B2B">
            <path d="M19.584 18.09l-3.95-.007h-.246v-.235-6.155c0-.533-.041-1.061-.231-1.568-.322-.856-1.025-1.269-1.974-1.247-1.242.03-2.143 1.12-2.175 2.029-.006.183-.017.366-.017.549v6.61H6.805V5.986h4.184V7.63c.245-.276.461-.545.705-.788.646-.644 1.447-.995 2.368-1.1.845-.096 1.675-.04 2.48.237a4.083 4.083 0 0 1 2.278 1.873c.439.76.642 1.585.724 2.442.005.06.025.117.039.176v7.62zM4.462 18.073H.293c-.004-.062-.013-.125-.013-.19 0-3.9 0-7.801-.004-11.703 0-.172.053-.212.225-.211 1.253.007 2.506.003 3.759.003h.202v12.101zM2.424 4.34C1.41 4.304.636 3.976.224 3.099-.394 1.783.514.315 2.008.172 2.654.11 3.266.179 3.816.526a2.045 2.045 0 0 1 .904 2.11c-.17.84-.813 1.457-1.716 1.633-.211.041-.428.054-.58.072"/>
        </g>
        <path d="M0-1h20v20H0z"/>
    </g>
</svg>
