<svg xmlns="http://www.w3.org/2000/svg" width="21" height="16" viewBox="0 0 21 16">
    <g fill="none" fill-rule="evenodd">
        <path d="M.667-2h20v20h-20z"/>
        <path fill="#2B2B2B" d="M18.623 4.391c0 5.226-4.117 11.258-11.672 11.258a12.21 12.21 0 0 1-6.284-1.762c.31.06.65.06.99.06a8.442 8.442 0 0 0 5.109-1.702C5 12.215 3.484 11.11 2.926 9.498c.62.12 1.24.09 1.858-.06-1.92-.358-3.312-2-3.312-3.882v-.06a4.41 4.41 0 0 0 1.857.508C1.534 4.839.976 2.51 2.06.718 4.166 3.197 7.23 4.69 10.513 4.87c-.34-1.374.124-2.837 1.176-3.792 1.641-1.493 4.273-1.434 5.82.179A9.054 9.054 0 0 0 20.11.3a4.082 4.082 0 0 1-1.795 2.18 7.806 7.806 0 0 0 2.353-.627c-.589.777-1.27 1.493-2.075 2.03.031.15.031.359.031.508z"/>
    </g>
</svg>
